<svg xmlns="http://www.w3.org/2000/svg" viewBox="0 0 245.11 233.62"><defs><style>.cls-1{fill:none;}.cls-2{fill:#ededed;}.cls-3{fill:gray;}.cls-4{fill:#b3b3b3;}.cls-5{fill:#ffe5b4;}.cls-6{fill:#e966a2;}.cls-7{fill:#e6007e;}.cls-8{fill:#c6c6c6;}.cls-9{opacity:0.38;}</style></defs><g id="Camada_2" data-name="Camada 2"><g id="Camada_1-2" data-name="Camada 1"><rect class="cls-1" width="245.11" height="233.62"/><circle class="cls-2" cx="155.49" cy="85.78" r="1.33"/><path class="cls-2" d="M100.21,73.39a7,7,0,0,0,.9,2.09,4.46,4.46,0,0,0,1.47,1.45,3.13,3.13,0,0,0-1.47,1.24,6,6,0,0,0-.9,2.5,6.1,6.1,0,0,0-.91-2.5,3.22,3.22,0,0,0-1.45-1.24,4.68,4.68,0,0,0,1.45-1.45A7.23,7.23,0,0,0,100.21,73.39Z"/><circle class="cls-2" cx="110.36" cy="58.51" r="1.33"/><line class="cls-2" x1="144.92" y1="56.64" x2="144.92" y2="59.31"/><path class="cls-2" d="M144.92,59.86a.56.56,0,0,1-.56-.55V56.64a.56.56,0,0,1,1.11,0v2.67A.55.55,0,0,1,144.92,59.86Z"/><line class="cls-2" x1="144.91" y1="66.53" x2="144.91" y2="63.87"/><path class="cls-2" d="M144.91,67.09a.56.56,0,0,1-.56-.56V63.87a.56.56,0,1,1,1.11,0v2.66A.56.56,0,0,1,144.91,67.09Z"/><line class="cls-2" x1="147.57" y1="61.36" x2="150.24" y2="61.36"/><path class="cls-2" d="M150.24,61.92h-2.67a.56.56,0,0,1,0-1.11h2.67a.56.56,0,1,1,0,1.11Z"/><line class="cls-2" x1="139.57" y1="61.36" x2="142.24" y2="61.36"/><path class="cls-2" d="M142.24,61.92h-2.67a.56.56,0,0,1,0-1.11h2.67a.56.56,0,0,1,0,1.11Z"/><path class="cls-3" d="M122.72,229.45c-50.32,0-91.75-6.56-97.07-15a3.7,3.7,0,0,0-.93,2.32c0,9.3,43.73,16.85,97.66,16.85S220,226.07,220,216.77a3.46,3.46,0,0,0-.58-1.85C212.91,223.13,172.1,229.45,122.72,229.45Z"/><path class="cls-4" d="M122.72,229.45c49.38,0,90.19-6.32,96.74-14.53a3.75,3.75,0,0,0,.92-2.32c0-3.3-5.51-6.38-15-9v9a356.43,356.43,0,0,1-87,9.52,356,356,0,0,1-76.88-9.52v-9.35c-10.34,2.68-16.37,5.89-16.37,9.34a3.48,3.48,0,0,0,.59,1.85C31,222.89,72.4,229.45,122.72,229.45Z"/><path class="cls-5" d="M118.31,222.13a356.43,356.43,0,0,0,87-9.52v-42c-2.16,2.65-4.82,4.77-7,5-2.91.29-6.18-2.64-9.63-5.75-3.11-2.79-6.3-5.67-8.77-5.49-2.18.16-4.07,3.68-5.9,7.09s-3.63,6.75-6,7.45c-3,.87-6.48-2.25-10.21-5.55-3.23-2.87-6.57-5.84-9-5.42-3,.53-4.55,6.17-6,11.63-1.6,6-3.11,11.64-6.74,12.37a4,4,0,0,1-.83.08c-4,0-6.91-6-10-12.44-2.5-5.26-5.09-10.69-8.13-11.92-2.64-1.07-6.88,1.61-11,4.2-3.33,2.1-6.48,4.09-9,4.26s-5.9-2.18-9.06-4.46L87,170.94c-2.53-1.81-5.06-3.45-7-3.45h0c-2.76,0-6,3.62-9.18,7.1-3.57,3.95-7,7.69-10.26,7.45-2.82-.2-4.43-4.21-6.13-8.46-1.49-3.7-3-7.52-5.16-7.89-1.1-.19-2.49,2.4-3.72,4.68s-2.59,4.81-4.17,5.82v36.42A356,356,0,0,0,118.31,222.13Z"/><path class="cls-6" d="M45.6,170.37c1.23-2.28,2.62-4.87,3.72-4.68,2.14.37,3.67,4.19,5.16,7.89,1.7,4.25,3.31,8.26,6.13,8.46,3.29.24,6.69-3.5,10.26-7.45,3.16-3.48,6.42-7.08,9.18-7.1h0c1.91,0,4.44,1.64,7,3.45l1.09.77c3.16,2.28,6.45,4.64,9.06,4.46s5.64-2.16,9-4.26c4.1-2.59,8.34-5.27,11-4.2,3,1.23,5.63,6.66,8.13,11.92,3,6.39,5.93,12.44,10,12.44a4,4,0,0,0,.83-.08c3.63-.73,5.14-6.38,6.74-12.37,1.46-5.46,3-11.1,6-11.63,2.43-.42,5.77,2.55,9,5.42,3.73,3.3,7.24,6.42,10.21,5.55,2.36-.7,4.12-4,6-7.45s3.72-6.93,5.9-7.09c2.47-.18,5.66,2.7,8.77,5.49,3.45,3.11,6.72,6,9.63,5.75,2.21-.23,4.87-2.35,7-5,.29-.36.56-.72.83-1.09l.14-.19c.27-.38.53-.76.77-1.14h0c.23-.37.44-.74.65-1.1,0-.09.09-.18.14-.27.2-.38.38-.75.55-1.11l.25-.51h0l0-.1c3.26-8.3,1.19-33.93-.25-36a.76.76,0,0,0-.4-.31c-2.25-9.29-38.62-16.44-84.65-16.44-46.67,0-84.63,8-84.63,17.78h0c-2.32,9.29-3.46,26.75-1.18,42.54,0,.17,0,.37.07.58.14,1.27.33,3,1.54,3.33a2.61,2.61,0,0,0,.55.08h.15a2.56,2.56,0,0,0,.39,0l.15,0a2.07,2.07,0,0,0,.4-.13l.1,0a3.78,3.78,0,0,0,.49-.25C43,175.18,44.32,172.75,45.6,170.37Zm94.54-25.61q7.2,0,14.41-.5a194.6,194.6,0,0,0,49.25-10c2.29-.78,3.27,2.84,1,3.62q-6.87,2.35-13.9,4.2a200.34,200.34,0,0,1-50.76,6.48A1.88,1.88,0,0,1,140.14,144.76Zm-36.82-.4a2.25,2.25,0,1,1,0,4.49A2.25,2.25,0,1,1,103.32,144.36ZM42.53,134.21q5.46,2.32,11.06,4.15A130.46,130.46,0,0,0,94,144.76c2,0,2,3.75,0,3.75q-5.92,0-11.84-.52a134.36,134.36,0,0,1-40.46-10.16C39.88,137.05,40.68,133.43,42.53,134.21Z"/><path class="cls-7" d="M94,148.51c2,0,2-3.75,0-3.75a130.46,130.46,0,0,1-40.43-6.4q-5.6-1.83-11.06-4.15c-1.85-.78-2.65,2.84-.81,3.62A134.36,134.36,0,0,0,82.18,148Q88.09,148.51,94,148.51Z"/><path class="cls-7" d="M140.14,148.51A200.34,200.34,0,0,0,190.9,142q7-1.84,13.9-4.2c2.27-.78,1.29-4.4-1-3.62a194.6,194.6,0,0,1-49.25,10q-7.2.51-14.41.5A1.88,1.88,0,0,0,140.14,148.51Z"/><path class="cls-7" d="M103.32,148.85a2.25,2.25,0,1,0,0-4.49A2.25,2.25,0,1,0,103.32,148.85Z"/><path class="cls-8" d="M122.55,95a4.09,4.09,0,0,0-4.24,3.92V126a7.66,7.66,0,0,1,1.24.16,6.35,6.35,0,0,1,3,1.46,6.34,6.34,0,0,1,3-1.46,7.68,7.68,0,0,1,1.23-.16V98.88A4.08,4.08,0,0,0,122.55,95Z"/><path d="M122.55,93.93a.51.51,0,0,1-.5-.5V89.77a.5.5,0,0,1,.5-.5.5.5,0,0,1,.5.5v3.66A.5.5,0,0,1,122.55,93.93Z"/><g class="cls-9"><path class="cls-2" d="M123.43,82s-.26-.57-.17-.31-.05-.29-.07-.34c.14.41,0,0,0-.24s0-.3,0-.45c-.08.56.08-.15.1-.22.12-.43-.08.1.06-.12s.35-.49.06-.14a4.26,4.26,0,0,1,.42-.43c.13-.11.13-.11,0,0l.2-.14c.18-.1.36-.22.54-.33.35-.21.72-.42,1.06-.66a9.74,9.74,0,0,0,2.08-1.81,10.73,10.73,0,0,0,2.1-10.21,2.55,2.55,0,0,0-3.08-1.74A2.51,2.51,0,0,0,125,68c.13.39.21.79.31,1.19s0-.56,0,.11c0,.18,0,.37,0,.55s0,.37,0,.56c0,.69.11-.46,0,.22-.08.37-.16.73-.27,1.08,0,.06-.22.63-.11.33s-.12.26-.15.32a8.54,8.54,0,0,1-.64,1c-.15.23.23-.21-.09.11l-.38.4-.41.38c.38-.34-.19.13-.23.16-1.7,1.12-3.41,2-4.24,4a6.77,6.77,0,0,0,.34,6.13A2.5,2.5,0,1,0,123.43,82Z"/></g><g class="cls-9"><path class="cls-2" d="M131,56.93c3.22,0,3.22-5,0-5s-3.22,5,0,5Z"/></g></g></g></svg>